<?xml version="1.0" encoding="UTF-8"?><svg id="Ebene_1" xmlns="http://www.w3.org/2000/svg" width="1150.27996" height="732.79193" viewBox="0 0 1150.27996 732.79193"><defs><style>.cls-1{stroke-width:.86124px;}.cls-1,.cls-2,.cls-3,.cls-4,.cls-5{stroke-miterlimit:10;}.cls-1,.cls-2,.cls-5{fill:none;}.cls-1,.cls-5{stroke:#848484;}.cls-6{opacity:.72;}.cls-6,.cls-7,.cls-8{stroke-width:0px;}.cls-6,.cls-3,.cls-4{fill:#fff;}.cls-7{fill:#848484;}.cls-8,.cls-9{fill:#000;}.cls-2{stroke-width:1.35203px;}.cls-2,.cls-3{stroke:#000;}.cls-3,.cls-4{stroke-width:1.12762px;}.cls-4{stroke:#aaa;}.cls-9{stroke:#dbdbdb;}.cls-5{stroke-width:4px;}</style></defs><line class="cls-3" x1="1131.29769" y1="678.69219" x2="68.29769" y2="678.69219"/><line class="cls-4" x1="1131.29769" y1="538.19219" x2="68.29769" y2="538.19219"/><line class="cls-4" x1="1131.29769" y1="397.19219" x2="68.29769" y2="397.19219"/><line class="cls-4" x1="1131.29769" y1="256.19219" x2="68.29769" y2="256.19219"/><path class="cls-8" d="M174.96127,713.3377v-1.18457h3.12109v-8.99512h-.11182l-2.81738,2.625-.78418-.84863,2.96094-2.76953h2.09717v9.98828h2.88086v1.18457h-7.34668Z"/><path class="cls-8" d="M184.08041,710.29669c0-1.52051.9126-2.40137,2.25684-2.76953v-.12793c-1.16846-.40039-1.92041-1.34473-1.92041-2.625,0-1.69629,1.3125-2.80078,3.53711-2.80078,2.2251,0,3.5376,1.10449,3.5376,2.80078,0,1.28027-.75244,2.22461-1.9209,2.625v.12793c1.34473.36816,2.25684,1.24902,2.25684,2.76953,0,1.84082-1.32812,3.2334-3.87354,3.2334-2.54492,0-3.87354-1.39258-3.87354-3.2334ZM190.40316,710.36016v-.33594c0-1.26465-.89648-2.00098-2.44922-2.00098-1.55225,0-2.44873.73633-2.44873,2.00098v.33594c0,1.26465.89648,2.00098,2.44873,2.00098,1.55273,0,2.44922-.73633,2.44922-2.00098ZM190.09896,705.14239v-.24023c0-1.13672-.75244-1.76074-2.14502-1.76074s-2.14453.62402-2.14453,1.76074v.24023c0,1.13672.75195,1.76074,2.14453,1.76074s2.14502-.62402,2.14502-1.76074Z"/><path class="cls-8" d="M193.68051,710.29669c0-1.52051.9126-2.40137,2.25684-2.76953v-.12793c-1.16846-.40039-1.92041-1.34473-1.92041-2.625,0-1.69629,1.3125-2.80078,3.53711-2.80078,2.2251,0,3.5376,1.10449,3.5376,2.80078,0,1.28027-.75244,2.22461-1.9209,2.625v.12793c1.34473.36816,2.25684,1.24902,2.25684,2.76953,0,1.84082-1.32812,3.2334-3.87354,3.2334-2.54492,0-3.87354-1.39258-3.87354-3.2334ZM200.00326,710.36016v-.33594c0-1.26465-.89648-2.00098-2.44922-2.00098-1.55225,0-2.44873.73633-2.44873,2.00098v.33594c0,1.26465.89648,2.00098,2.44873,2.00098,1.55273,0,2.44922-.73633,2.44922-2.00098ZM199.69906,705.14239v-.24023c0-1.13672-.75244-1.76074-2.14502-1.76074s-2.14453.62402-2.14453,1.76074v.24023c0,1.13672.75195,1.76074,2.14453,1.76074s2.14502-.62402,2.14502-1.76074Z"/><path class="cls-8" d="M203.31283,707.75176c0-3.64941,1.16846-5.77832,3.84131-5.77832,2.67334,0,3.8418,2.12891,3.8418,5.77832s-1.16846,5.77832-3.8418,5.77832c-2.67285,0-3.84131-2.12891-3.84131-5.77832ZM209.58724,708.66387v-1.8252c0-2.16016-.68799-3.69727-2.43311-3.69727-1.74463,0-2.43262,1.53711-2.43262,3.69727v1.8252c0,2.16113.68799,3.69727,2.43262,3.69727,1.74512,0,2.43311-1.53613,2.43311-3.69727Z"/><path class="cls-9" d="M23.94515,543.62774v-1.18359h3.12109v-8.99609h-.11182l-2.81738,2.625-.78418-.84766,2.96094-2.76953h2.09717v9.98828h2.88086v1.18359h-7.34668Z"/><path class="cls-9" d="M33.17709,535.43243c0-2.04883.91211-3.16797,2.52881-3.16797s2.5293,1.11914,2.5293,3.16797-.9126,3.16992-2.5293,3.16992-2.52881-1.12109-2.52881-3.16992ZM37.08236,535.9129v-.96094c0-1.21484-.44775-1.85547-1.37646-1.85547-.92822,0-1.37646.64062-1.37646,1.85547v.96094c0,1.2168.44824,1.85742,1.37646,1.85742.92871,0,1.37646-.64062,1.37646-1.85742ZM35.06576,543.62774l7.74707-11.17188h1.23242l-7.74707,11.17188h-1.23242ZM40.87631,540.65118c0-2.04883.91211-3.16992,2.52881-3.16992s2.52881,1.12109,2.52881,3.16992-.91211,3.16992-2.52881,3.16992-2.52881-1.12109-2.52881-3.16992ZM44.78158,541.13165v-.96094c0-1.2168-.44824-1.85742-1.37646-1.85742s-1.37646.64062-1.37646,1.85742v.96094c0,1.2168.44824,1.85547,1.37646,1.85547s1.37646-.63867,1.37646-1.85547Z"/><path class="cls-9" d="M31.06771,402.62774h-7.33057v-1.37695l3.64941-3.36133c1.04004-.95898,1.84082-2.08008,1.84082-3.15234v-.19141c0-1.23242-.68848-2.08203-2.06494-2.08203s-2.01709.83203-2.3208,1.88867l-1.20068-.46289c.43213-1.3125,1.42432-2.625,3.58545-2.625,2.17676,0,3.42529,1.34375,3.42529,3.24805,0,1.72852-1.02441,2.94531-2.44873,4.22656l-3.00928,2.70508h5.87402v1.18359Z"/><path class="cls-9" d="M33.17709,394.43243c0-2.04883.91211-3.16797,2.52881-3.16797s2.5293,1.11914,2.5293,3.16797-.9126,3.16992-2.5293,3.16992-2.52881-1.12109-2.52881-3.16992ZM37.08236,394.9129v-.96094c0-1.21484-.44775-1.85547-1.37646-1.85547-.92822,0-1.37646.64062-1.37646,1.85547v.96094c0,1.2168.44824,1.85742,1.37646,1.85742.92871,0,1.37646-.64062,1.37646-1.85742ZM35.06576,402.62774l7.74707-11.17188h1.23242l-7.74707,11.17188h-1.23242ZM40.87631,399.65118c0-2.04883.91211-3.16992,2.52881-3.16992s2.52881,1.12109,2.52881,3.16992-.91211,3.16992-2.52881,3.16992-2.52881-1.12109-2.52881-3.16992ZM44.78158,400.13165v-.96094c0-1.2168-.44824-1.85742-1.37646-1.85742s-1.37646.64062-1.37646,1.85742v.96094c0,1.2168.44824,1.85547,1.37646,1.85547s1.37646-.63867,1.37646-1.85547Z"/><path class="cls-9" d="M26.7142,255.19366c1.50439,0,2.27295-.78418,2.27295-1.85645v-.1123c0-1.16895-.81641-1.76074-2.00098-1.76074-1.15234,0-1.84082.54395-2.30469,1.39258l-.99268-.76855c.56055-.89648,1.53662-1.82422,3.32959-1.82422,1.88867,0,3.39307,1.00781,3.39307,2.81641,0,1.44141-.96045,2.30566-2.14453,2.60938v.06445c1.2002.24023,2.35303,1.13574,2.35303,2.81641,0,1.9209-1.521,3.25-3.79395,3.25-1.93652,0-2.9292-.94434-3.61719-1.90527l1.0083-.76855c.57617.88086,1.23242,1.47266,2.59326,1.47266,1.56836,0,2.40088-.75195,2.40088-2.06445v-.12793c0-1.3125-.83252-2.06543-2.40088-2.06543h-1.3125v-1.16797h1.21631Z"/><path class="cls-9" d="M33.17709,253.43292c0-2.04883.91211-3.16895,2.52881-3.16895s2.5293,1.12012,2.5293,3.16895-.9126,3.16895-2.5293,3.16895-2.52881-1.12012-2.52881-3.16895ZM37.08236,253.91338v-.96094c0-1.21582-.44775-1.85645-1.37646-1.85645-.92822,0-1.37646.64062-1.37646,1.85645v.96094c0,1.21582.44824,1.85645,1.37646,1.85645.92871,0,1.37646-.64062,1.37646-1.85645ZM35.06576,261.62823l7.74707-11.17285h1.23242l-7.74707,11.17285h-1.23242ZM40.87631,258.65069c0-2.04883.91211-3.16895,2.52881-3.16895s2.52881,1.12012,2.52881,3.16895-.91211,3.16992-2.52881,3.16992-2.52881-1.12109-2.52881-3.16992ZM44.78158,259.13116v-.95996c0-1.2168-.44824-1.85742-1.37646-1.85742s-1.37646.64062-1.37646,1.85742v.95996c0,1.2168.44824,1.85645,1.37646,1.85645s1.37646-.63965,1.37646-1.85645Z"/><path class="cls-8" d="M441.29427,713.3377v-1.18457h3.12109v-8.99512h-.11182l-2.81738,2.625-.78418-.84863,2.96094-2.76953h2.09717v9.98828h2.88086v1.18457h-7.34668Z"/><path class="cls-8" d="M454.03109,713.3377h-1.72852c2.38477-1.74512,3.71338-3.20117,4.32129-5.79395l-.07959-.03223c-.52832.91211-1.32861,1.60059-2.68945,1.60059-1.92041,0-3.29736-1.3291-3.29736-3.44141,0-2.19336,1.47266-3.69727,3.71387-3.69727,2.3208,0,3.74512,1.63281,3.74512,4.28906,0,3.31348-2.19287,5.90625-3.98535,7.0752ZM456.62386,705.62286v-.12793c0-1.50488-.86426-2.35352-2.33691-2.35352s-2.33691.84863-2.33691,2.35352v.12793c0,1.50391.86426,2.35254,2.33691,2.35254s2.33691-.84863,2.33691-2.35254Z"/><path class="cls-8" d="M467.61654,713.3377h-7.33057v-1.37695l3.64941-3.36133c1.04004-.95996,1.84082-2.08008,1.84082-3.15332v-.19141c0-1.23242-.68848-2.08105-2.06494-2.08105s-2.01709.83203-2.3208,1.88867l-1.20068-.46387c.43213-1.3125,1.42432-2.625,3.58545-2.625,2.17676,0,3.42529,1.34375,3.42529,3.24902,0,1.72852-1.02441,2.94531-2.44873,4.22559l-3.00928,2.70508h5.87402v1.18457Z"/><path class="cls-8" d="M469.64584,707.75176c0-3.64941,1.16846-5.77832,3.84131-5.77832,2.67334,0,3.8418,2.12891,3.8418,5.77832s-1.16846,5.77832-3.8418,5.77832c-2.67285,0-3.84131-2.12891-3.84131-5.77832ZM475.92025,708.66387v-1.8252c0-2.16016-.68799-3.69727-2.43311-3.69727-1.74463,0-2.43262,1.53711-2.43262,3.69727v1.8252c0,2.16113.68799,3.69727,2.43262,3.69727,1.74512,0,2.43311-1.53613,2.43311-3.69727Z"/><path class="cls-8" d="M707.62826,713.3377v-1.18457h3.12109v-8.99512h-.11182l-2.81738,2.625-.78418-.84863,2.96094-2.76953h2.09717v9.98828h2.88086v1.18457h-7.34668Z"/><path class="cls-8" d="M720.36508,713.3377h-1.72852c2.38477-1.74512,3.71338-3.20117,4.32129-5.79395l-.07959-.03223c-.52832.91211-1.32861,1.60059-2.68945,1.60059-1.92041,0-3.29736-1.3291-3.29736-3.44141,0-2.19336,1.47266-3.69727,3.71387-3.69727,2.3208,0,3.74512,1.63281,3.74512,4.28906,0,3.31348-2.19287,5.90625-3.98535,7.0752ZM722.95785,705.62286v-.12793c0-1.50488-.86426-2.35352-2.33691-2.35352s-2.33691.84863-2.33691,2.35352v.12793c0,1.50391.86426,2.35254,2.33691,2.35254s2.33691-.84863,2.33691-2.35254Z"/><path class="cls-8" d="M726.49154,709.24004c0-3.31348,2.19287-5.90625,3.98584-7.0752h1.72852c-2.38477,1.74512-3.71338,3.20117-4.32178,5.79492l.08008.03223c.52832-.91309,1.32861-1.60156,2.68896-1.60156,1.9209,0,3.29736,1.3291,3.29736,3.44141,0,2.19336-1.47217,3.69824-3.71338,3.69824-2.3208,0-3.74561-1.63281-3.74561-4.29004ZM732.55795,710.0086v-.12793c0-1.50488-.86426-2.35352-2.33691-2.35352-1.47217,0-2.33691.84863-2.33691,2.35352v.12793c0,1.50391.86475,2.35254,2.33691,2.35254,1.47266,0,2.33691-.84863,2.33691-2.35254Z"/><path class="cls-8" d="M735.97982,707.75176c0-3.64941,1.16846-5.77832,3.84131-5.77832,2.67334,0,3.8418,2.12891,3.8418,5.77832s-1.16846,5.77832-3.8418,5.77832c-2.67285,0-3.84131-2.12891-3.84131-5.77832ZM742.25424,708.66387v-1.8252c0-2.16016-.68799-3.69727-2.43311-3.69727-1.74463,0-2.43262,1.53711-2.43262,3.69727v1.8252c0,2.16113.68799,3.69727,2.43262,3.69727,1.74512,0,2.43311-1.53613,2.43311-3.69727Z"/><path class="cls-8" d="M981.08383,713.3377h-7.33105v-1.37695l3.65039-3.36133c1.04004-.95996,1.83984-2.08008,1.83984-3.15332v-.19141c0-1.23242-.6875-2.08105-2.06445-2.08105s-2.01758.83203-2.32129,1.88867l-1.2002-.46387c.43164-1.3125,1.42383-2.625,3.58594-2.625,2.17578,0,3.4248,1.34375,3.4248,3.24902,0,1.72852-1.02441,2.94531-2.44824,4.22559l-3.00977,2.70508h5.87402v1.18457Z"/><path class="cls-8" d="M983.11215,707.75176c0-3.64941,1.16895-5.77832,3.8418-5.77832,2.67383,0,3.8418,2.12891,3.8418,5.77832s-1.16797,5.77832-3.8418,5.77832c-2.67285,0-3.8418-2.12891-3.8418-5.77832ZM989.38754,708.66387v-1.8252c0-2.16016-.68848-3.69727-2.43359-3.69727-1.74414,0-2.43262,1.53711-2.43262,3.69727v1.8252c0,2.16113.68848,3.69727,2.43262,3.69727,1.74512,0,2.43359-1.53613,2.43359-3.69727Z"/><path class="cls-8" d="M992.71273,707.75176c0-3.64941,1.16895-5.77832,3.84082-5.77832,2.67383,0,3.8418,2.12891,3.8418,5.77832s-1.16797,5.77832-3.8418,5.77832c-2.67188,0-3.84082-2.12891-3.84082-5.77832ZM998.98715,708.66387v-1.8252c0-2.16016-.6875-3.69727-2.43359-3.69727-1.74414,0-2.43164,1.53711-2.43164,3.69727v1.8252c0,2.16113.6875,3.69727,2.43164,3.69727,1.74609,0,2.43359-1.53613,2.43359-3.69727Z"/><path class="cls-8" d="M1002.31332,707.75176c0-3.64941,1.16797-5.77832,3.84082-5.77832s3.8418,2.12891,3.8418,5.77832-1.16895,5.77832-3.8418,5.77832-3.84082-2.12891-3.84082-5.77832ZM1008.58676,708.66387v-1.8252c0-2.16016-.6875-3.69727-2.43262-3.69727s-2.43262,1.53711-2.43262,3.69727v1.8252c0,2.16113.6875,3.69727,2.43262,3.69727s2.43262-1.53613,2.43262-3.69727Z"/><polyline class="cls-5" points="68.29769 350.64289 113.43705 370.69219 170.65595 349.69219 225.80694 331.69219 244.40475 311.69219 334.68346 313.69219 362.65714 336.69219 426.2337 348.69219 499.9825 335.69219 524.14159 321.69219 587.71815 344.69219 650.02317 386.69219 681.26571 422.9067 711.05666 432.69219 727.83367 446.25587 764.51579 462.69219 812.14339 522.69219 840.75284 586.69219 879.49712 562.69219 931.03154 560.69219 964.09135 552.69219 998.6698 592.69219 1026.39638 637.69219 1067.08537 619.69219 1105.23131 625.69219"/><rect class="cls-1" x="177.29769" y="126.32616" width="180" height="63.73206" rx="8.61244" ry="8.61244"/><rect class="cls-1" x="391.29769" y="126.32616" width="180" height="63.73206" rx="8.61244" ry="8.61244"/><rect class="cls-2" x="169.79769" y="13.19219" width="826.25085" height="66" rx="13.52031" ry="13.52031"/><path class="cls-8" d="M199.43099,50.29913l1.24023-1.04004c.97998,1.30029,2.14014,2.00049,3.76074,2.00049,2.00049,0,3.08057-1.04004,3.08057-2.64062,0-1.32031-.74023-1.98047-2.58057-2.40039l-1.14014-.26025c-2.54053-.58008-3.94092-1.7002-3.94092-3.84082,0-2.48047,1.88037-3.8208,4.62109-3.8208,2.10059,0,3.58057.80029,4.62109,2.28076l-1.26025.91992c-.76025-1.06006-1.8208-1.72021-3.44092-1.72021-1.78027,0-2.88086.78027-2.88086,2.28027,0,1.32031.86035,1.92041,2.62061,2.3208l1.14062.25977c2.72021.62012,3.90039,1.82031,3.90039,3.90088,0,2.56055-1.80029,4.20117-4.80078,4.20117-2.24072,0-3.8208-.92041-4.94092-2.44092Z"/><path class="cls-8" d="M211.15072,47.33868c0-3.28076,1.84033-5.40137,4.64062-5.40137,2.76074,0,4.46094,2.12061,4.46094,5.0415v.75977h-7.42139v.48047c0,1.78027,1.14014,3.12061,3.06055,3.12061,1.30029,0,2.30078-.64014,2.84082-1.78027l1.14014.81982c-.66016,1.40039-2.14062,2.36084-4.08105,2.36084-2.80029,0-4.64062-2.12061-4.64062-5.40137ZM212.8309,46.39874v.13965h5.70117v-.21973c0-1.8208-1.1001-3.04102-2.74072-3.04102-1.74023,0-2.96045,1.32031-2.96045,3.12109Z"/><path class="cls-8" d="M230.39242,52.49981c-1.18066,0-1.66064-.72021-1.78076-1.68018h-.09961c-.44043,1.26025-1.54053,1.92041-2.98096,1.92041-2.18018,0-3.46045-1.2002-3.46045-3.12109,0-1.93994,1.3999-3.02051,4.40088-3.02051h2.04053v-1.02002c0-1.46045-.80029-2.26074-2.44092-2.26074-1.24023,0-2.06006.6001-2.62061,1.54053l-.95996-.90039c.56006-1.1001,1.80029-2.02051,3.66064-2.02051,2.48047,0,3.96094,1.30029,3.96094,3.48096v5.68115h1.18018v1.40039h-.8999ZM228.51205,49.49932v-1.70068h-2.12061c-1.82031,0-2.64062.56006-2.64062,1.56055v.41992c0,1.02051.80029,1.60059,2.04053,1.60059,1.58008,0,2.7207-.82031,2.7207-1.88037Z"/><path class="cls-8" d="M233.57064,52.49981v-10.32227h1.60059v1.90039h.1001c.35986-.97998,1.30029-1.90039,2.98047-1.90039h.62012v1.60059h-.93994c-1.7207,0-2.76074.73975-2.76074,1.72021v7.00146h-1.60059Z"/><path class="cls-8" d="M240.05062,47.33868c0-3.30078,1.7002-5.40137,4.60059-5.40137,2.04053,0,3.26074,1.00049,3.86084,2.4209l-1.34033.68018c-.37988-1.06055-1.26025-1.68066-2.52051-1.68066-1.90039,0-2.88037,1.30029-2.88037,3.10059v1.76074c0,1.80029.97998,3.10059,2.88037,3.10059,1.30029,0,2.24072-.62012,2.80078-1.80029l1.16016.77979c-.66016,1.48047-2.00049,2.44092-3.96094,2.44092-2.90039,0-4.60059-2.10059-4.60059-5.40137Z"/><path class="cls-8" d="M250.87045,37.69659h1.60059v6.16162h.08008c.5-1.16064,1.38037-1.9209,2.92041-1.9209,2.12061,0,3.46094,1.44043,3.46094,3.94092v6.62158h-1.60059v-6.34131c0-1.84033-.80029-2.78076-2.34033-2.78076-1.28027,0-2.52051.64014-2.52051,1.96045v7.16162h-1.60059v-14.80322Z"/><path class="cls-8" d="M267.51009,43.57794h-1.68018v-1.40039h1.68018v-2.08057c0-1.41992.74023-2.40039,2.26074-2.40039h1.56055v1.40039h-2.2207v3.08057h2.2207v1.40039h-2.2207v8.92188h-1.60059v-8.92188Z"/><path class="cls-8" d="M272.59017,47.33868c0-3.28076,1.90039-5.40137,4.66064-5.40137,2.76074,0,4.66113,2.12061,4.66113,5.40137s-1.90039,5.40137-4.66113,5.40137c-2.76025,0-4.66064-2.12061-4.66064-5.40137ZM280.19174,48.07891v-1.48047c0-2.18018-1.22021-3.24072-2.94092-3.24072-1.72021,0-2.94043,1.06055-2.94043,3.24072v1.48047c0,2.18066,1.22021,3.24072,2.94043,3.24072,1.7207,0,2.94092-1.06006,2.94092-3.24072Z"/><path class="cls-8" d="M284.55013,52.49981v-10.32227h1.60059v1.90039h.1001c.35986-.97998,1.30029-1.90039,2.98047-1.90039h.62012v1.60059h-.93994c-1.7207,0-2.76074.73975-2.76074,1.72021v7.00146h-1.60059Z"/><path class="cls-8" d="M302.97103,42.17754h1.58057l-4.62109,12.72266c-.45996,1.24023-.87988,1.60059-2.40039,1.60059h-.82031v-1.40039h1.62061l.77979-2.20068-3.86084-10.72217h1.60059l2.48047,7.02148.47998,1.68066h.1001l.56006-1.68066,2.50049-7.02148Z"/><path class="cls-8" d="M305.72982,47.33868c0-3.28076,1.90039-5.40137,4.66064-5.40137,2.76074,0,4.66113,2.12061,4.66113,5.40137s-1.90039,5.40137-4.66113,5.40137c-2.76025,0-4.66064-2.12061-4.66064-5.40137ZM313.33138,48.07891v-1.48047c0-2.18018-1.22021-3.24072-2.94092-3.24072-1.72021,0-2.94043,1.06055-2.94043,3.24072v1.48047c0,2.18066,1.22021,3.24072,2.94043,3.24072,1.7207,0,2.94092-1.06006,2.94092-3.24072Z"/><path class="cls-8" d="M324.05111,50.81963h-.07959c-.40039.97998-1.18066,1.92041-2.90088,1.92041-2.12061,0-3.48047-1.44043-3.48047-3.94092v-6.62158h1.6001v6.34131c0,1.84033.82031,2.78076,2.36035,2.78076,1.26025,0,2.50049-.62012,2.50049-1.98047v-7.1416h1.60059v10.32227h-1.60059v-1.68018Z"/><path class="cls-8" d="M329.04916,52.49981v-10.32227h1.60059v1.90039h.1001c.35986-.97998,1.30029-1.90039,2.98047-1.90039h.62012v1.60059h-.93994c-1.7207,0-2.76074.73975-2.76074,1.72021v7.00146h-1.60059Z"/><path class="cls-8" d="M348.61117,52.49981c-1.18066,0-1.66064-.72021-1.78076-1.68018h-.09961c-.44043,1.26025-1.54053,1.92041-2.98096,1.92041-2.18018,0-3.46045-1.2002-3.46045-3.12109,0-1.93994,1.3999-3.02051,4.40088-3.02051h2.04053v-1.02002c0-1.46045-.80029-2.26074-2.44092-2.26074-1.24023,0-2.06006.6001-2.62061,1.54053l-.95996-.90039c.56006-1.1001,1.80029-2.02051,3.66064-2.02051,2.48047,0,3.96094,1.30029,3.96094,3.48096v5.68115h1.18018v1.40039h-.8999ZM346.7308,49.49932v-1.70068h-2.12061c-1.82031,0-2.64062.56006-2.64062,1.56055v.41992c0,1.02051.80029,1.60059,2.04053,1.60059,1.58008,0,2.7207-.82031,2.7207-1.88037Z"/><path class="cls-8" d="M356.50863,52.49981v-10.32227h1.60059v1.68066h.08008c.5-1.16064,1.38037-1.9209,2.92041-1.9209,2.12061,0,3.46094,1.44043,3.46094,3.94092v6.62158h-1.60059v-6.34131c0-1.84033-.7998-2.78076-2.34033-2.78076-1.28027,0-2.52051.64014-2.52051,1.96045v7.16162h-1.60059Z"/><path class="cls-8" d="M375.37045,52.49981c-1.18066,0-1.66064-.72021-1.78076-1.68018h-.09961c-.44043,1.26025-1.54053,1.92041-2.98096,1.92041-2.18018,0-3.46045-1.2002-3.46045-3.12109,0-1.93994,1.3999-3.02051,4.40088-3.02051h2.04053v-1.02002c0-1.46045-.80029-2.26074-2.44092-2.26074-1.24023,0-2.06006.6001-2.62061,1.54053l-.95996-.90039c.56006-1.1001,1.80029-2.02051,3.66064-2.02051,2.48047,0,3.96094,1.30029,3.96094,3.48096v5.68115h1.18018v1.40039h-.8999ZM373.49008,49.49932v-1.70068h-2.12061c-1.82031,0-2.64062.56006-2.64062,1.56055v.41992c0,1.02051.80029,1.60059,2.04053,1.60059,1.58008,0,2.7207-.82031,2.7207-1.88037Z"/><path class="cls-8" d="M378.54867,52.49981v-10.32227h1.60059v1.68066h.08008c.45996-1.06055,1.18018-1.9209,2.78027-1.9209,1.36035,0,2.60059.62061,3.16064,2.10059h.04004c.38037-1.12012,1.38037-2.10059,3.14062-2.10059,2.10059,0,3.36084,1.44043,3.36084,3.94092v6.62158h-1.6001v-6.34131c0-1.82031-.7002-2.78076-2.26074-2.78076-1.26025,0-2.42041.64014-2.42041,1.96045v7.16162h-1.6001v-6.34131c0-1.84033-.7002-2.78076-2.2207-2.78076-1.26025,0-2.46045.64014-2.46045,1.96045v7.16162h-1.60059Z"/><path class="cls-8" d="M395.24838,47.33868c0-3.28076,1.84033-5.40137,4.64062-5.40137,2.76074,0,4.46094,2.12061,4.46094,5.0415v.75977h-7.42139v.48047c0,1.78027,1.14014,3.12061,3.06055,3.12061,1.30029,0,2.30078-.64014,2.84082-1.78027l1.14014.81982c-.66016,1.40039-2.14062,2.36084-4.08105,2.36084-2.80029,0-4.64062-2.12061-4.64062-5.40137ZM396.92855,46.39874v.13965h5.70117v-.21973c0-1.8208-1.1001-3.04102-2.74072-3.04102-1.74023,0-2.96045,1.32031-2.96045,3.12109Z"/><path class="cls-8" d="M406.38851,51.5794v-.25977c0-.68018.37988-1.16016,1.22021-1.16016.83984,0,1.22021.47998,1.22021,1.16016v.25977c0,.68018-.38037,1.16064-1.22021,1.16064-.84033,0-1.22021-.48047-1.22021-1.16064Z"/><path class="cls-8" d="M411.82845,51.5794v-.25977c0-.68018.37988-1.16016,1.22021-1.16016.83984,0,1.22021.47998,1.22021,1.16016v.25977c0,.68018-.38037,1.16064-1.22021,1.16064-.84033,0-1.22021-.48047-1.22021-1.16064Z"/><path class="cls-8" d="M417.2684,51.5794v-.25977c0-.68018.37988-1.16016,1.22021-1.16016.83984,0,1.22021.47998,1.22021,1.16016v.25977c0,.68018-.38037,1.16064-1.22021,1.16064-.84033,0-1.22021-.48047-1.22021-1.16064Z"/><path class="cls-7" d="M225.64828,152.5086v10.41406c0,2.6875-1.80566,4.47217-4.8291,4.47217-2.89746,0-4.42969-1.65869-4.84961-4.11523l2.98047-.58789c.23145,1.23877.83984,1.91064,1.82715,1.91064.92383,0,1.67969-.56689,1.67969-1.82666v-7.70557h-4.45117v-2.56152h7.64258Z"/><path class="cls-7" d="M227.93929,161.6419c0-3.54834,1.93164-5.75293,5.16504-5.75293s5.16504,2.20459,5.16504,5.75293-1.93164,5.77393-5.16504,5.77393-5.16504-2.22559-5.16504-5.77393ZM235.03597,162.77569v-2.24658c0-1.38574-.71387-2.18359-1.93164-2.18359s-1.93164.79785-1.93164,2.18359v2.24658c0,1.38574.71387,2.18359,1.93164,2.18359s1.93164-.79785,1.93164-2.18359Z"/><path class="cls-7" d="M240.47543,151.62676h3.10742v6.38281h.12695c.39844-1.15479,1.32227-2.12061,3.06445-2.12061,2.24707,0,3.44336,1.5957,3.44336,4.36719v6.90771h-3.10742v-6.65576c0-1.40674-.39844-2.09961-1.53223-2.09961-1.00781,0-1.99512.5249-1.99512,1.6167v7.13867h-3.10742v-15.53711Z"/><path class="cls-7" d="M252.99105,167.16387v-11.02295h3.10742v1.86865h.12695c.39844-1.15479,1.32227-2.12061,3.06445-2.12061,2.24707,0,3.44336,1.5957,3.44336,4.36719v6.90771h-3.10742v-6.65576c0-1.40674-.39844-2.09961-1.53223-2.09961-1.00781,0-1.99512.5249-1.99512,1.6167v7.13867h-3.10742Z"/><path class="cls-7" d="M273.46566,151.20684h2.91797c-2.24609,2.09961-3.65234,5.12305-3.65234,8.69238v1.46973c0,3.69531,1.42773,6.65576,3.65234,8.69238h-2.93945c-2.03613-1.76367-3.65234-5.354-3.65234-9.44824,0-4.05225,1.57422-7.57959,3.67383-9.40625Z"/><path class="cls-7" d="M288.68832,157.54766h-.0625l-1.07031,2.1416-2.85547,5.18604-2.79297-5.16504-1.11328-2.30957h-.0625v9.76318h-3.00195v-14.65527h3.37988l3.59082,6.86572h.04102l3.54883-6.86572h3.40137v14.65527h-3.00293v-9.61621Z"/><path class="cls-7" d="M295.97738,170.06133h-2.93945c2.22656-2.03662,3.6543-4.99707,3.6543-8.69238v-1.46973c0-3.56934-1.40723-6.59277-3.6543-8.69238h2.91895c2.09961,1.82666,3.6748,5.354,3.6748,9.40625,0,4.09424-1.61719,7.68457-3.6543,9.44824Z"/><path class="cls-7" d="M310.40414,159.58428l-4.47168-7.07568h3.71582l2.85547,4.95508h.06348l2.89648-4.95508h3.44336l-4.51367,7.13867,4.76562,7.5166h-3.69531l-3.16992-5.396h-.0625l-3.08691,5.396h-3.44336l4.70312-7.57959Z"/><path class="cls-7" d="M428.79281,159.83624c0-4.97607,2.56152-7.57959,6.44629-7.57959,3.88379,0,6.44531,2.60352,6.44531,7.57959s-2.56152,7.57959-6.44531,7.57959c-3.88477,0-6.44629-2.60352-6.44629-7.57959ZM438.30355,160.92803v-2.18359c0-2.33057-1.1543-3.65332-3.06445-3.65332-1.91113,0-3.06641,1.32275-3.06641,3.65332v2.18359c0,2.33057,1.15527,3.65332,3.06641,3.65332,1.91016,0,3.06445-1.32275,3.06445-3.65332Z"/><path class="cls-7" d="M447.2723,167.16387c-2.12109,0-3.08594-1.0708-3.08594-3.02344v-12.51367h3.10742v13.12256h1.38477v2.41455h-1.40625Z"/><path class="cls-7" d="M450.29574,153.43243v-.46191c0-.88184.54688-1.53271,1.80664-1.53271s1.80469.65088,1.80469,1.53271v.46191c0,.88184-.54492,1.53271-1.80469,1.53271s-1.80664-.65088-1.80664-1.53271ZM450.54769,156.14092h3.10742v11.02295h-3.10742v-11.02295Z"/><path class="cls-7" d="M458.90511,167.16387l-3.61133-11.02295h3.06641l1.36426,4.45117,1.02832,3.98926h.16797l1.0293-3.98926,1.32227-4.45117h2.93945l-3.61133,11.02295h-3.69531Z"/><path class="cls-7" d="M467.60043,153.43243v-.46191c0-.88184.54492-1.53271,1.80469-1.53271s1.80664.65088,1.80664,1.53271v.46191c0,.88184-.54688,1.53271-1.80664,1.53271s-1.80469-.65088-1.80469-1.53271ZM467.85238,156.14092h3.10742v11.02295h-3.10742v-11.02295Z"/><path class="cls-7" d="M482.00472,167.16387c-1.11328,0-1.91113-.75586-2.09961-1.93164h-.12695c-.33594,1.42773-1.55273,2.18359-3.23242,2.18359-2.20508,0-3.42285-1.30176-3.42285-3.2124,0-2.33057,1.80566-3.44336,4.72363-3.44336h1.74316v-.69287c0-1.0708-.52441-1.74268-1.82715-1.74268-1.23828,0-1.88867.62988-2.37207,1.30176l-1.84766-1.6377c.88184-1.30176,2.1416-2.09961,4.45117-2.09961,3.10742,0,4.70312,1.42773,4.70312,4.03125v4.8291h1.02832v2.41455h-1.7207ZM479.58968,163.82549v-1.30176h-1.51172c-1.19629,0-1.82715.44092-1.82715,1.23877v.31494c0,.79785.52539,1.17578,1.44922,1.17578,1.0293,0,1.88965-.41992,1.88965-1.42773Z"/><path class="cls-7" d="M493.76547,151.20684h2.91895c-2.24707,2.09961-3.6543,5.12305-3.6543,8.69238v1.46973c0,3.69531,1.42773,6.65576,3.6543,8.69238h-2.93945c-2.03711-1.76367-3.6543-5.354-3.6543-9.44824,0-4.05225,1.5752-7.57959,3.6748-9.40625Z"/><path class="cls-7" d="M498.02816,167.16387v-14.65527h9.72168v2.83447h-6.53027v3.00244h5.56445v2.81348h-5.56445v6.00488h-3.19141Z"/><path class="cls-7" d="M511.67855,170.06133h-2.93945c2.22461-2.03662,3.65234-4.99707,3.65234-8.69238v-1.46973c0-3.56934-1.40625-6.59277-3.65234-8.69238h2.91797c2.09961,1.82666,3.67383,5.354,3.67383,9.40625,0,4.09424-1.61621,7.68457-3.65234,9.44824Z"/><path class="cls-7" d="M526.10433,159.58428l-4.47266-7.07568h3.7168l2.85547,4.95508h.0625l2.89844-4.95508h3.44336l-4.51465,7.13867,4.7666,7.5166h-3.69531l-3.1709-5.396h-.06348l-3.08594,5.396h-3.44336l4.70312-7.57959Z"/><polyline class="cls-5" points="68.29769 623.14289 113.43705 533.19219 170.65595 492.19219 225.80694 497.19219 244.40475 521.19219 334.68346 578.19219 362.65714 611.19219 426.2337 623.19219 499.9825 610.19219 524.14159 593.19219 587.71815 569.19219 650.02317 501.19219 681.26571 467.4067 711.05666 458.19219 727.83367 470.75587 764.51579 457.19219 812.14339 457.19219 840.75284 471.19219 879.49712 457.19219 931.03154 445.19219 964.09135 417.19219 998.6698 417.19219 1026.39638 322.19219 1067.08537 294.19219 1105.23131 280.19219"/><rect class="cls-6" x=".29769" y="1.69219" width="1150" height="731"/><path class="cls-8" d="M479.89388,369.43047h-.10498c-.37793,1.11328-1.28076,2.09961-3.08643,2.09961-2.24658,0-3.44336-1.57422-3.44336-4.3457v-6.92871h3.10742v6.65527c0,1.34375.44092,2.09961,1.57471,2.09961.96582,0,1.95264-.5459,1.95264-1.5957v-7.15918h3.10742v11.02246h-3.10742v-1.84766Z"/><path class="cls-8" d="M485.90072,371.27813v-11.02246h3.10742v1.86816h.12598c.39893-1.1543,1.32275-2.12012,3.06543-2.12012,2.24658,0,3.44336,1.5957,3.44336,4.36719v6.90723h-3.10742v-6.65527c0-1.40723-.39893-2.09961-1.53271-2.09961-1.00781,0-1.99463.52441-1.99463,1.61621v7.13867h-3.10742Z"/><path class="cls-8" d="M505.17709,369.43047h-.10498c-.31494,1.19727-1.53271,2.09961-2.96045,2.09961-2.79248,0-4.24121-2.03613-4.24121-5.77344s1.44873-5.75293,4.24121-5.75293c1.42773,0,2.64551.88184,2.96045,2.09961h.10498v-6.3623h3.10742v15.53711h-3.10742v-1.84766ZM505.17709,367.39434v-3.25488c0-1.00781-.86084-1.61621-2.03662-1.61621s-2.03662.90234-2.03662,2.28809v1.91113c0,1.38574.86084,2.28809,2.03662,2.28809s2.03662-.6084,2.03662-1.61621Z"/><path class="cls-8" d="M510.49105,365.75665c0-3.48535,1.84766-5.75293,5.16504-5.75293,3.65332,0,5.12305,2.64551,5.12305,5.62695v.92383h-7.07568v.16797c0,1.44824.77686,2.37207,2.43555,2.37207,1.30176,0,2.01562-.6084,2.7085-1.32227l1.55371,1.93164c-.98682,1.13379-2.60352,1.82617-4.61914,1.82617-3.38037,0-5.29102-2.24609-5.29102-5.77344ZM513.70345,364.55938v.16797h3.86328v-.18848c0-1.34375-.60889-2.24707-1.84766-2.24707s-2.01562.90332-2.01562,2.26758Z"/><path class="cls-8" d="M522.98568,371.27813v-11.02246h3.10742v2.39355h.10498c.25195-1.21777,1.0918-2.39355,2.81348-2.39355h.5459v2.89746h-.77686c-1.80566,0-2.6875.39844-2.6875,1.67969v6.44531h-3.10742Z"/><path class="cls-8" d="M535.73275,365.75665c0-3.52734,1.82666-5.75293,5.14404-5.75293,2.22559,0,3.7583,1.07031,4.40918,2.87598l-2.51953,1.0918c-.18896-.83984-.79785-1.51172-1.88965-1.51172-1.25977,0-1.91064.90332-1.91064,2.28906v2.05762c0,1.38574.65088,2.26758,1.91064,2.26758,1.23877,0,1.74268-.75586,2.05762-1.6377l2.41455,1.0498c-.73486,2.09961-2.30957,3.04395-4.47217,3.04395-3.31738,0-5.14404-2.24609-5.14404-5.77344Z"/><path class="cls-8" d="M546.4847,365.75665c0-3.54883,1.93164-5.75293,5.16504-5.75293s5.16504,2.2041,5.16504,5.75293c0,3.54785-1.93164,5.77344-5.16504,5.77344s-5.16504-2.22559-5.16504-5.77344ZM553.58138,366.89044v-2.24707c0-1.38574-.71387-2.18359-1.93164-2.18359s-1.93164.79785-1.93164,2.18359v2.24707c0,1.38574.71387,2.18359,1.93164,2.18359s1.93164-.79785,1.93164-2.18359Z"/><path class="cls-8" d="M559.02133,371.27813v-11.02246h3.10742v1.86816h.12598c.39893-1.1543,1.32275-2.12012,3.06543-2.12012,2.24658,0,3.44336,1.5957,3.44336,4.36719v6.90723h-3.10742v-6.65527c0-1.40723-.39893-2.09961-1.53271-2.09961-1.00781,0-1.99463.52441-1.99463,1.61621v7.13867h-3.10742Z"/><path class="cls-8" d="M570.63412,369.55645l1.82666-1.84766c.77686.86133,1.72168,1.40723,2.91846,1.40723,1.21777,0,1.6377-.39941,1.6377-1.0498,0-.5459-.33594-.81934-1.11279-.92383l-1.19678-.14746c-2.49854-.31445-3.71631-1.40625-3.71631-3.40137,0-2.12012,1.65869-3.58984,4.2832-3.58984,2.30957,0,3.38037.62988,4.49316,1.72168l-1.78467,1.82617c-.69287-.69238-1.6167-1.13379-2.54053-1.13379-1.0498,0-1.46973.37793-1.46973.92383,0,.58789.25195.90332,1.15479,1.0293l1.23877.16797c2.39355.31445,3.63232,1.40625,3.63232,3.31738,0,2.12012-1.88965,3.67383-4.72412,3.67383-2.12061,0-3.50635-.71387-4.64014-1.97363Z"/><path class="cls-8" d="M585.81674,371.27813c-2.1416,0-3.27539-1.1123-3.27539-3.21191v-5.39648h-1.55371v-2.41406h.77686c.83984,0,1.0918-.41992,1.0918-1.17578v-1.80566h2.79248v2.98145h2.18359v2.41406h-2.18359v6.19434h2.01562v2.41406h-1.84766Z"/><path class="cls-8" d="M589.99642,371.27813v-11.02246h3.10742v2.39355h.10498c.25195-1.21777,1.0918-2.39355,2.81348-2.39355h.5459v2.89746h-.77686c-1.80566,0-2.6875.39844-2.6875,1.67969v6.44531h-3.10742Z"/><path class="cls-8" d="M604.9891,369.43047h-.10498c-.37793,1.11328-1.28076,2.09961-3.08643,2.09961-2.24658,0-3.44336-1.57422-3.44336-4.3457v-6.92871h3.10742v6.65527c0,1.34375.44092,2.09961,1.57471,2.09961.96582,0,1.95264-.5459,1.95264-1.5957v-7.15918h3.10742v11.02246h-3.10742v-1.84766Z"/><path class="cls-8" d="M610.30306,365.75665c0-3.52734,1.82666-5.75293,5.14404-5.75293,2.22559,0,3.7583,1.07031,4.40918,2.87598l-2.51953,1.0918c-.18896-.83984-.79785-1.51172-1.88965-1.51172-1.25977,0-1.91064.90332-1.91064,2.28906v2.05762c0,1.38574.65088,2.26758,1.91064,2.26758,1.23877,0,1.74268-.75586,2.05762-1.6377l2.41455,1.0498c-.73486,2.09961-2.30957,3.04395-4.47217,3.04395-3.31738,0-5.14404-2.24609-5.14404-5.77344Z"/><path class="cls-8" d="M625.71615,371.27813c-2.1416,0-3.27539-1.1123-3.27539-3.21191v-5.39648h-1.55371v-2.41406h.77686c.83984,0,1.0918-.41992,1.0918-1.17578v-1.80566h2.79248v2.98145h2.18359v2.41406h-2.18359v6.19434h2.01562v2.41406h-1.84766Z"/><path class="cls-8" d="M629.64388,357.54669v-.46191c0-.88184.5459-1.53223,1.80566-1.53223s1.80566.65039,1.80566,1.53223v.46191c0,.88184-.5459,1.5332-1.80566,1.5332s-1.80566-.65137-1.80566-1.5332ZM629.89584,360.25567h3.10742v11.02246h-3.10742v-11.02246Z"/><path class="cls-8" d="M635.20883,365.75665c0-3.54883,1.93164-5.75293,5.16504-5.75293s5.16504,2.2041,5.16504,5.75293c0,3.54785-1.93164,5.77344-5.16504,5.77344s-5.16504-2.22559-5.16504-5.77344ZM642.30551,366.89044v-2.24707c0-1.38574-.71387-2.18359-1.93164-2.18359s-1.93164.79785-1.93164,2.18359v2.24707c0,1.38574.71387,2.18359,1.93164,2.18359s1.93164-.79785,1.93164-2.18359Z"/><path class="cls-8" d="M647.74545,371.27813v-11.02246h3.10742v1.86816h.12598c.39893-1.1543,1.32275-2.12012,3.06543-2.12012,2.24658,0,3.44336,1.5957,3.44336,4.36719v6.90723h-3.10742v-6.65527c0-1.40723-.39893-2.09961-1.53271-2.09961-1.00781,0-1.99463.52441-1.99463,1.61621v7.13867h-3.10742Z"/><path class="cls-8" d="M660.21908,369.82989v-.41992c0-.96582.58789-1.67969,1.84766-1.67969s1.84766.71387,1.84766,1.67969v.41992c0,.96582-.58789,1.67969-1.84766,1.67969s-1.84766-.71387-1.84766-1.67969Z"/><path class="cls-8" d="M666.72884,369.82989v-.41992c0-.96582.58789-1.67969,1.84766-1.67969s1.84766.71387,1.84766,1.67969v.41992c0,.96582-.58789,1.67969-1.84766,1.67969s-1.84766-.71387-1.84766-1.67969Z"/><path class="cls-8" d="M673.23861,369.82989v-.41992c0-.96582.58789-1.67969,1.84766-1.67969s1.84766.71387,1.84766,1.67969v.41992c0,.96582-.58789,1.67969-1.84766,1.67969s-1.84766-.71387-1.84766-1.67969Z"/></svg>