<?xml version="1.0" encoding="UTF-8"?>
<svg id="Ebene_1" data-name="Ebene 1" xmlns="http://www.w3.org/2000/svg" version="1.1" viewBox="0 0 1169.9 1169.9">
  <defs>
    <style>
      .cls-1 {
        fill: #a757a3;
      }

      .cls-1, .cls-2 {
        stroke-width: 0px;
      }

      .cls-2 {
        fill: #fff;
      }
    </style>
  </defs>
  <circle class="cls-1" cx="584.9" cy="584.9" r="584.9"/>
  <path class="cls-2" d="M471.7,740.9l-238.8,30c0,20.4,15.6,36,36,36h226.8c14.4,0,24,0,36-18l78-93.6c-32.4-12-62.4-31.2-87.6-55.2l-50.4,100.8Z"/>
  <path class="cls-2" d="M706.9,434.9l-18,48,145.2-31.2c13.2-2.4,22.8-15.6,22.8-28.8l-150,12Z"/>
  <path class="cls-2" d="M608.5,220.1c2.4,25.2,39.6,0,48,46.8h4.8c24,0,45.6-20.4,48-46.8l3.6-37.2c3.6-32.4-19.2-60-49.2-60h-8.4c-30,0-52.8,26.4-49.2,60l2.4,37.2h0Z"/>
  <path class="cls-2" d="M532.9,217.7c19.2,2.4,30,0,36-2.4,7.2-3.6,12-12,12-21.6s-10.8-24-24-24-24,6-24,6c-37.2,9.6-54-6-58.8-1.2-4.8,6,27.6,37.2,58.8,43.2h0Z"/>
  <path class="cls-2" d="M778.9,728.9l-102-168c-4.8-8.4-9.6-15.6-15.6-20.4l15.6-111.6,8.4-3.6c18-8.4,26.4-28.8,18-46.8l-26.4-57.6c-2.4-6-10.8-12-16.8-13.2,0,0-85.2-16.8-92.4-16.8-12,0-24,6-30,12l-106.8,96c-7.2,6-10.8,10.8-10.8,16.8s4.8,13.2,10.8,21.6l63.6,92.4c7.2,10.8,24,18,37.2,15.6l12-2.4-66-117.6,114-68.4v12l-27.6,24-20.4,186v6c0,25.2,12,42,30,60l138,126,42,252c3.6,22.8,25.2,24,42,24l-12-288c1.2-12,1.2-18-4.8-30h0Z"/>
</svg>