<?xml version="1.0" encoding="UTF-8"?>
<svg id="Ebene_1" data-name="Ebene 1" xmlns="http://www.w3.org/2000/svg" version="1.1" viewBox="0 0 636 943.2">
  <defs>
    <style>
      .cls-1 {
        fill: #378ebd;
        stroke-width: 0px;
      }
    </style>
  </defs>
  <path class="cls-1" d="M238.8,624L0,666c0,20.4,15.6,36,36,36h226.8c14.4,0,24,0,36-18l78-93.6c-33.6-13.2-64.8-32.4-88.8-57.6l-49.2,91.2Z"/>
  <path class="cls-1" d="M498,318l-30,60,145.2-31.2c13.2-2.4,22.8-15.6,22.8-28.8v-12l-138,12Z"/>
  <path class="cls-1" d="M546,624s-110.4-170.4-115.2-175.2l38.4-168c8.4-38.4-15.6-75.6-55.2-81.6,0,0-72-12-79.2-12-12,0-24,6-30,12l-106.8,96c-7.2,6-10.8,10.8-10.8,16.8s4.8,13.2,10.8,21.6l63.6,92.4c7.2,10.8,24,18,37.2,15.6l12-2.4-54-117.6,102-74.4v12l-26.4,22.8s-21.6,196.8-21.6,199.2c0,25.2,12,42,30,60l126,126,42,240c3.6,19.2,22.8,36,42,36h12l-12-288c1.2-13.2,1.2-19.2-4.8-31.2h0Z"/>
  <path class="cls-1" d="M387.6,115.2c2.4,25.2,39.6,0,48,46.8h4.8c24,0,45.6-20.4,48-46.8l6-66c2.4-20.4-13.2-39.6-33.6-43.2l-40.8-6v20.4c-22.8,7.2-38.4,30-36,57.6l3.6,37.2Z"/>
</svg>