<?xml version="1.0" encoding="UTF-8"?><svg id="Ebene_1" xmlns="http://www.w3.org/2000/svg" width="1169.85811" height="1169.85811" viewBox="0 0 1169.85811 1169.85811"><defs><style>.cls-1{fill:#fff;}.cls-1,.cls-2{stroke-width:0px;}.cls-2{fill:#69aacd;}</style></defs><circle class="cls-2" cx="584.92905" cy="584.92905" r="584.92905"/><path class="cls-1" d="M462.72853,737.32578l-238.8,42c0,20.39801,15.60201,36,36.00002,36h226.79999c14.39801,0,24,0,36-18l78-93.60199c-33.60199-13.19897-64.80103-32.39801-88.80103-57.60199l-49.19897,91.20398Z"/><path class="cls-1" d="M721.92854,431.32575l-30,60,145.20001-31.19901c13.19897-2.39841,22.80103-15.60199,22.80103-28.80099v-12l-138.00104,12Z"/><path class="cls-1" d="M769.92854,737.32578s-110.40002-170.40002-115.20001-175.20001l38.39801-168c8.39838-38.39801-15.60199-75.60199-55.19897-81.60199,0,0-72-12-79.19897-12-12,0-24,6-30,12l-106.79999,96c-7.19919,6-10.80099,10.80099-10.80099,16.80099,0,8.39841,4.80081,13.19901,10.80099,21.60199l63.60199,92.39798c7.19919,10.80103,24,18,37.19897,15.60199l12-2.39838-54-117.60001,102-74.39801v12l-26.39801,22.80099s-21.60199,196.79999-21.60199,199.20001c0,25.19897,12,42,30,60l126,126,42,240c3.60162,19.19897,22.80103,36,42,36h12l-12-288c1.19922-13.203,1.19922-19.203-4.80078-31.203l-.00024-.00256Z"/><path class="cls-1" d="M611.52852,228.52576c2.39838,25.19901,39.60199,0,48,46.80099h4.80078c24,0,45.60199-20.39801,48-46.80099l6-66c2.39838-20.39799-13.19897-39.60201-33.60199-43.19901l-40.80103-6v20.39799c-22.80103,7.1992-38.39801,30-36,57.60201l3.60223,37.19901Z"/></svg>