<?xml version="1.0" encoding="UTF-8"?><svg id="Ebene_1" xmlns="http://www.w3.org/2000/svg" width="1169.85811" height="1169.85811" viewBox="0 0 1169.85811 1169.85811"><defs><style>.cls-1{fill:#ba7fb7;}.cls-1,.cls-2{stroke-width:0px;}.cls-2{fill:#fff;}</style></defs><circle class="cls-1" cx="584.92905" cy="584.92905" r="584.92905"/><path class="cls-2" d="M471.72853,740.92654l-238.8,30c0,20.39801,15.60201,36,36.00002,36h226.79999c14.39801,0,24,0,36-18l78-93.60199c-32.39801-12-62.39801-31.19897-87.60199-55.19897l-50.39801,100.80096Z"/><path class="cls-2" d="M706.92854,434.92654l-18,48,145.20001-31.19901c13.19897-2.39841,22.80103-15.60199,22.80103-28.80099l-150.00104,12Z"/><path class="cls-2" d="M608.52852,220.12653c2.39838,25.19899,39.60199,0,48,46.80101h4.80078c24,0,45.60199-20.39801,48-46.80099l3.60162-37.19901c3.60162-32.39799-19.19897-60-49.19897-60h-8.39838c-30,0-52.80103,26.39799-49.19897,60l2.39392,37.19899Z"/><path class="cls-2" d="M532.92854,217.72654c19.19897,2.39841,30,0,36-2.39841,7.19922-3.60159,12-12,12-21.60201,0-13.19901-10.80103-24-24-24-6,0-24,6-24,6-37.19901,9.60159-54-6-58.80099-1.1992-4.80081,6,27.60199,37.19901,58.80099,43.19901v.00061Z"/><path class="cls-2" d="M778.92854,728.92654l-102-168c-4.80078-8.39838-9.60162-15.60199-15.60199-20.39801l15.60199-111.60001,8.39838-3.60159c18-8.39841,26.39801-28.80099,18-46.80099l-26.39801-57.60199c-2.39838-6-10.80103-12-16.80103-13.19901,0,0-85.19897-16.80099-92.39801-16.80099-12,0-24,6-30,12l-106.79999,96c-7.19919,6-10.80099,10.80099-10.80099,16.80099,0,8.39841,4.80081,13.19901,10.80099,21.60199l63.60199,92.39801c7.19919,10.80103,24,18,37.19897,15.60199l12-2.39838-66-117.60001,114-68.39801v12l-27.60199,24-20.39801,186.00003v6c0,25.19897,12,42,30,60l138,126,42,252c3.60162,22.80103,25.19897,24,42,24l-12-288c1.19922-12,1.19922-18-4.80078-30l-.00153-.00403Z"/></svg>