<?xml version="1.0" encoding="UTF-8"?>
<svg width="1200pt" height="1200pt" version="1.1" viewBox="0 0 1200 1200" xmlns="http://www.w3.org/2000/svg">
 <path d="m478.8 756-238.8 30c0 20.398 15.602 36 36 36h226.8c14.398 0 24 0 36-18l78-93.602c-32.398-12-62.398-31.199-87.602-55.199z"/>
 <path d="m714 450-18 48 145.2-31.199c13.199-2.3984 22.801-15.602 22.801-28.801z"/>
 <path d="m615.6 235.2c2.3984 25.199 39.602 0 48 46.801h4.8008c24 0 45.602-20.398 48-46.801l3.6016-37.199c3.6016-32.398-19.199-60-49.199-60h-8.3984c-30 0-52.801 26.398-49.199 60z"/>
 <path d="m540 232.8c19.199 2.3984 30 0 36-2.3984 7.1992-3.6016 12-12 12-21.602 0-13.199-10.801-24-24-24-6 0-24 6-24 6-37.199 9.6016-54-6-58.801-1.1992-4.8008 6 27.602 37.199 58.801 43.199z"/>
 <path d="m786 744-102-168c-4.8008-8.3984-9.6016-15.602-15.602-20.398l15.602-111.6 8.3984-3.6016c18-8.3984 26.398-28.801 18-46.801l-26.398-57.602c-2.3984-6-10.801-12-16.801-13.199 0 0-85.199-16.801-92.398-16.801-12 0-24 6-30 12l-106.8 96c-7.1992 6-10.801 10.801-10.801 16.801 0 8.3984 4.8008 13.199 10.801 21.602l63.602 92.398c7.1992 10.801 24 18 37.199 15.602l12-2.3984-66-117.6 114-68.398v12l-27.602 24-20.398 186v6c0 25.199 12 42 30 60l138 126 42 252c3.6016 22.801 25.199 24 42 24l-12-288c1.1992-12 1.1992-18-4.8008-30z"/>
</svg>
